<?xml version="1.0" encoding="UTF-8"?>
<svg width="44px" height="64px" viewBox="0 0 44 64" version="1.1" xmlns="http://www.w3.org/2000/svg" xmlns:xlink="http://www.w3.org/1999/xlink">
    <!-- Generator: Sketch 47.1 (45422) - http://www.bohemiancoding.com/sketch -->
    <title>Group 5 Copy</title>
    <desc>Created with Sketch.</desc>
    <defs>
        <path d="M0,3 L22,3 L22,36 L22,36 C22,37.1045695 21.1045695,38 20,38 L4,38 L4,38 C1.790861,38 2.705415e-16,36.209139 0,34 L0,3 Z" id="path-1"></path>
        <path d="M16.4900215,18.0003126 L16.4900215,37.7022239 L4,37.7022239 L4,37.7022239 C2.8954305,37.7022239 2,36.8067934 2,35.7022239 C2,35.3434456 2.09651089,34.9912731 2.27941693,34.6826191 L12.7694384,16.9807078 L12.7694384,16.9807078 C13.3325506,16.030456 14.5593745,15.7166174 15.5096263,16.2797295 C16.1173559,16.6398656 16.4900215,17.2938897 16.4900215,18.0003126 Z" id="path-2"></path>
        <path d="M14,16 L32,16 L32,16 C34.209139,16 36,17.790861 36,20 L36,51 L14,51 L14,16 Z" id="path-3"></path>
    </defs>
    <g id="Page-1" stroke="none" stroke-width="1" fill="none" fill-rule="evenodd">
        <g id="Desktop-HD-Copy-11" transform="translate(-862.000000, -2497.000000)">
            <g id="Group-5-Copy" transform="translate(883.819805, 2528.819805) rotate(45.000000) translate(-883.819805, -2528.819805) translate(865.819805, 2501.819805)">
                <g id="Rectangle-13">
                    <use fill="#F9F7F7" fill-rule="evenodd" xlink:href="#path-1"></use>
                    <path stroke="#9D9C9C" stroke-width="2" d="M1,4 L1,34 C1,35.6568542 2.34314575,37 4,37 L20,37 C20.5522847,37 21,36.5522847 21,36 L21,4 L1,4 Z"></path>
                </g>
                <rect id="Rectangle-14" fill="#D8D5D5" x="2" y="7" width="18" height="5"></rect>
                <rect id="Rectangle-14" fill="#D8D5D5" x="2" y="14" width="18" height="3"></rect>
                <rect id="Rectangle-13" fill="#9D9C9C" x="0" y="0" width="2" height="5" rx="1"></rect>
                <rect id="Rectangle-13" fill="#9D9C9C" x="4" y="0" width="2" height="5" rx="1"></rect>
                <rect id="Rectangle-13" fill="#9D9C9C" x="8" y="0" width="2" height="5" rx="1"></rect>
                <rect id="Rectangle-13" fill="#9D9C9C" x="12" y="0" width="2" height="5" rx="1"></rect>
                <rect id="Rectangle-13" fill="#9D9C9C" x="16" y="0" width="2" height="5" rx="1"></rect>
                <rect id="Rectangle-13" fill="#9D9C9C" x="20" y="0" width="2" height="5" rx="1"></rect>
                <g id="Rectangle-13">
                    <use fill="#E6E2E2" fill-rule="evenodd" xlink:href="#path-2"></use>
                    <path stroke="#9D9C9C" stroke-width="2" d="M15.4900215,36.7022239 L15.4900215,18.0003126 C15.4900215,17.6471012 15.3036887,17.3200891 14.9998239,17.1400211 C14.524698,16.858465 13.9112861,17.0153843 13.62973,17.4905102 L3.13970847,35.1924215 C3.04825545,35.3467485 3,35.5228347 3,35.7022239 C3,36.2545086 3.44771525,36.7022239 4,36.7022239 L15.4900215,36.7022239 Z"></path>
                </g>
                <g id="Rectangle-13">
                    <use fill="#F9F7F7" fill-rule="evenodd" xlink:href="#path-3"></use>
                    <path stroke="#9D9C9C" stroke-width="2" d="M15,17 L15,50 L35,50 L35,20 C35,18.3431458 33.6568542,17 32,17 L15,17 Z"></path>
                </g>
                <rect id="Rectangle-13" fill="#9D9C9C" x="14" y="49" width="2" height="5" rx="1"></rect>
                <rect id="Rectangle-13" fill="#9D9C9C" x="18" y="49" width="2" height="5" rx="1"></rect>
                <rect id="Rectangle-13" fill="#9D9C9C" x="22" y="49" width="2" height="5" rx="1"></rect>
                <rect id="Rectangle-13" fill="#9D9C9C" x="26" y="49" width="2" height="5" rx="1"></rect>
                <rect id="Rectangle-13" fill="#9D9C9C" x="30" y="49" width="2" height="5" rx="1"></rect>
                <rect id="Rectangle-13" fill="#9D9C9C" x="34" y="49" width="2" height="5" rx="1"></rect>
                <rect id="Rectangle-14-Copy" fill="#D8D5D5" x="16" y="41" width="18" height="5"></rect>
                <rect id="Rectangle-14-Copy" fill="#D8D5D5" x="16" y="36" width="18" height="3"></rect>
            </g>
        </g>
    </g>
</svg>